<?xml version="1.0" standalone="no"?>
<!DOCTYPE svg PUBLIC "-//W3C//DTD SVG 20010904//EN"
 "http://www.w3.org/TR/2001/REC-SVG-20010904/DTD/svg10.dtd">
<svg version="1.0" xmlns="http://www.w3.org/2000/svg"
 width="128.000000pt" height="128.000000pt" viewBox="0 0 128.000000 128.000000"
 preserveAspectRatio="xMidYMid meet">
<metadata>
Created by potrace 1.11, written by Peter Selinger 2001-2013
</metadata>
<g transform="translate(0.000000,128.000000) scale(0.100000,-0.100000)"
fill="#000000" stroke="none">
<path d="M68 1265 c-14 -8 -36 -30 -47 -49 -19 -29 -21 -49 -21 -166 0 -149
12 -189 64 -221 28 -18 49 -19 226 -17 177 3 198 5 222 23 15 11 30 28 33 38
5 13 18 17 64 17 32 0 61 3 64 6 10 10 -10 40 -60 89 l-46 46 -3 80 c-2 89
-15 118 -67 149 -29 18 -51 20 -217 20 -142 -1 -191 -4 -212 -15z"/>
<path d="M853 1260 c-51 -30 -63 -65 -63 -177 0 -80 4 -104 20 -130 11 -18 19
-33 17 -34 -1 0 -12 -2 -23 -4 -70 -14 -138 -68 -167 -135 -23 -52 -31 -195
-12 -214 17 -16 227 -15 233 2 4 14 72 16 72 2 0 -5 9 -10 20 -10 11 0 20 5
20 10 0 14 44 12 58 -2 18 -18 229 -18 244 -1 6 8 9 48 6 101 -5 119 -41 182
-127 227 -17 8 -36 15 -43 15 -7 0 -19 4 -27 9 -11 7 -10 14 5 37 16 23 19 52
22 162 2 90 -1 139 -9 148 -8 10 -39 14 -113 14 -83 0 -107 -4 -133 -20z"/>
<path d="M235 703 c-50 -34 -65 -76 -62 -179 1 -61 7 -100 20 -123 9 -19 16
-35 15 -36 -2 -1 -21 -7 -43 -13 -57 -16 -114 -67 -141 -126 -30 -64 -35 -210
-8 -220 9 -3 156 -6 329 -6 359 0 324 -13 319 113 -3 57 -10 91 -26 124 -27
54 -96 109 -149 118 l-36 6 19 38 c16 32 19 61 19 176 0 76 -3 140 -6 144 -3
3 -54 6 -112 6 -92 0 -109 -2 -138 -22z"/>
<path d="M786 455 c-15 -8 -37 -26 -48 -40 -16 -21 -28 -25 -73 -25 -74 0 -76
-17 -7 -85 l56 -56 2 -67 c1 -37 2 -75 3 -85 1 -9 16 -34 35 -55 l34 -37 199
-3 c185 -2 200 -1 231 18 51 32 62 70 62 222 0 148 -11 183 -69 213 -43 22
-382 22 -425 0z"/>
</g>
</svg>
